<svg height="471pt" viewBox="-3 1 471 471.9973" width="471pt" xmlns="http://www.w3.org/2000/svg"><path d="m336.5 103.996094c-1.890625 0-3.71875-.671875-5.160156-1.894532l-98.839844-83.625-98.832031 83.625c-2.171875 1.925782-5.214844 2.523438-7.953125 1.5625-2.738282-.960937-4.742188-3.324218-5.238282-6.183593-.492187-2.859375.597657-5.761719 2.855469-7.585938l104-88c2.980469-2.527343 7.351563-2.527343 10.335938 0l104 88c2.558593 2.167969 3.492187 5.703125 2.339843 8.855469-1.15625 3.152344-4.152343 5.246094-7.507812 5.246094zm0 0" fill="#9c9c9c"/><path d="m48.5 135.996094h368v288h-368zm0 0" fill="#6cbae5"/><path d="m.5 87.996094v384h464v-384zm416 336h-368v-288h368zm0 0" fill="#e8b35c"/><path d="m208.5 303.996094-88-80-72 64v136h160zm0 0" fill="#cbcbcb"/><path d="m416.5 303.996094-104-120-176 200v40h280zm0 0" fill="#dbdbdb"/><path d="m280.5 271.996094 24-24h63.460938l-55.460938-64-77.441406 88zm0 0" fill="#eaeae8"/><path d="m120.5 223.996094-72 64h56l24-16h44.796875zm0 0" fill="#e4e4e2"/><path d="m232.5 199.996094c0 17.675781-14.328125 32-32 32-17.675781 0-32-14.324219-32-32 0-17.671875 14.324219-32 32-32 17.671875 0 32 14.328125 32 32zm0 0" fill="#fece2f"/><path d="m360.5 295.996094-24 16v48l48-8v-40zm0 0" fill="#d9c2a0"/><path d="m48.5 423.996094v-104h17.519531c74.414063.003906 146.597657 25.402344 204.613281 72 12.265626 9.882812-38.132812 32.304687-38.132812 32.304687zm0 0" fill="#6b9777"/><path d="m312.5 319.996094-24 16v40l48-8v-32zm0 0" fill="#c1ac8e"/><path d="m232.5 423.996094h184v-88c-66.238281.003906-129.402344 27.945312-173.960938 76.953125zm0 0" fill="#85bc94"/></svg>