<svg height="464pt" viewBox="-72 0 464 464" width="464pt" xmlns="http://www.w3.org/2000/svg"><path d="m62.398438 376 15.027343 75.136719c1.492188 7.480469 8.0625 12.867187 15.695313 12.863281h133.757812c7.632813.003906 14.203125-5.382812 15.695313-12.863281l15.027343-75.136719zm0 0" fill="#4398d1"/><path d="m251.199219 408 6.402343-32h-195.203124l6.402343 32zm0 0" fill="#3e8cc7"/><path d="m72 80h176c22.089844 0 40 17.910156 40 40v224c0 22.089844-17.910156 40-40 40h-176c-22.089844 0-40-17.910156-40-40v-224c0-22.089844 17.910156-40 40-40zm0 0" fill="#e3584b"/><path d="m256 80h-192l13.425781-67.136719c1.492188-7.480469 8.0625-12.86718725 15.695313-12.863281h133.757812c7.632813-.00390625 14.203125 5.382812 15.695313 12.863281zm0 0" fill="#4398d1"/><path d="m88 120h144c8.835938 0 16 7.164062 16 16v192c0 8.835938-7.164062 16-16 16h-144c-8.835938 0-16-7.164062-16-16v-192c0-8.835938 7.164062-16 16-16zm0 0" fill="#87ced9"/><path d="m73.441406 334.558594c2.574219 5.734375 8.273438 9.429687 14.558594 9.441406h144c8.835938 0 16-7.164062 16-16v-168zm0 0" fill="#71c4d1"/><path d="m192 256h-40l-24 24v-24c-13.253906 0-24-10.746094-24-24v-16c0-13.253906 10.746094-24 24-24h64c13.253906 0 24 10.746094 24 24v16c0 13.253906-10.746094 24-24 24zm0 0" fill="#fff"/><path d="m128 216h16v16h-16zm0 0" fill="#87ced9"/><path d="m160 216h32v16h-32zm0 0" fill="#87ced9"/><path d="m288 136h16c8.835938 0 16 7.164062 16 16v16c0 8.835938-7.164062 16-16 16h-16zm0 0" fill="#ffa230"/><path d="m288 216h16c8.835938 0 16 7.164062 16 16v64c0 8.835938-7.164062 16-16 16h-16zm0 0" fill="#ffa230"/><path d="m304 280h-16v32h16c8.835938 0 16-7.164062 16-16v-32c0 8.835938-7.164062 16-16 16zm0 0" fill="#f59731"/><path d="m304 168h-16v16h16c8.835938 0 16-7.164062 16-16v-16c0 8.835938-7.164062 16-16 16zm0 0" fill="#f59731"/><path d="m32 184h-16c-8.835938 0-16-7.164062-16-16v-16c0-8.835938 7.164062-16 16-16h16zm0 0" fill="#ffa230"/><g fill="#4398d1"><path d="m96 144h16v16h-16zm0 0"/><path d="m192 144h32v16h-32zm0 0"/><path d="m96 304h32v16h-32zm0 0"/><path d="m192 304h32v16h-32zm0 0"/></g><path d="m242.574219 12.863281c-1.492188-7.480469-8.0625-12.86718725-15.695313-12.863281h-8.382812c-19.632813 38.398438-54.183594 63.855469-84.800782 80h122.304688zm0 0" fill="#3e8cc7"/><path d="m16 168h16v16h-16c-8.835938 0-16-7.164062-16-16v-16c0 8.835938 7.164062 16 16 16zm0 0" fill="#f59731"/></svg>